<?xml version="1.0" encoding="UTF-8"?>
<svg xmlns="http://www.w3.org/2000/svg" width="177" height="37" viewBox="0 0 177 37" fill="none">
  <path d="M103.572 20.8383C103.646 21.4015 103.928 21.814 104.235 22.1982C105.165 23.3608 106.418 23.8023 107.874 23.7847C109.316 23.7671 110.568 23.3238 111.56 22.2353C111.634 22.1542 111.861 22.126 111.969 22.1753C112.997 22.6451 114.012 23.1413 115.037 23.619C115.331 23.7565 115.353 23.8922 115.174 24.1699C113.862 26.2085 111.988 27.3525 109.614 27.7562C108.098 28.0144 106.6 27.9845 105.131 27.5411C103.387 27.0149 101.903 26.056 100.73 24.6582C99.2565 22.9025 98.5038 20.8691 98.6827 18.5749C98.9401 15.2715 100.588 12.8293 103.513 11.2754C105.187 10.3861 107.002 10.1208 108.855 10.4548C111.714 10.9704 113.83 12.5463 115.139 15.1578C115.943 16.7628 116.113 18.4762 115.952 20.2381C115.904 20.7704 115.868 20.8004 115.336 20.8004C111.61 20.8013 107.882 20.8004 104.156 20.8021C103.972 20.8039 103.789 20.8251 103.572 20.8383ZM103.66 17.2026C106.227 17.2026 108.76 17.2026 111.303 17.2026C110.951 15.7677 109.659 14.5382 107.57 14.4457C105.901 14.3717 104.068 15.6417 103.66 17.2026Z" fill="white"></path>
  <path d="M59.2219 10.7492C59.4141 10.7289 59.556 10.7016 59.6979 10.7007C60.9538 10.6972 62.2089 10.7051 63.4648 10.6946C63.7733 10.6919 63.9355 10.78 64.0589 11.0938C65.1315 13.8208 66.2288 16.5389 67.3191 19.2588C67.6531 20.0926 67.9889 20.9255 68.3239 21.7593C68.3618 21.7637 68.3988 21.7681 68.4367 21.7716C68.5971 21.4023 68.7637 21.0348 68.917 20.662C70.2206 17.4908 71.5241 14.3205 72.8189 11.1458C72.9449 10.8365 73.1027 10.6831 73.4675 10.6893C74.7226 10.7122 75.9786 10.6963 77.2345 10.699C77.6858 10.6998 77.7175 10.7545 77.5518 11.1582C76.0253 14.8899 74.5023 18.6234 72.9722 22.3542C71.391 26.2102 70.4956 28.7027 68.9117 32.5579C68.7381 32.98 68.5557 33.3996 68.397 33.8279C68.3018 34.0862 68.1379 34.1673 67.8735 34.1655C66.5911 34.1567 65.3087 34.162 64.0254 34.1611C63.5768 34.1611 63.5274 34.095 63.7011 33.6675C64.1047 32.6707 64.5172 31.6783 64.9288 30.685C65.4999 29.3056 65.3915 29.2915 65.9441 27.906C66.0208 27.7147 66.027 27.4397 65.9503 27.2502C64.5525 23.8138 63.137 20.3844 61.7259 16.9532C60.9336 15.0265 60.1412 13.0989 59.3515 11.1705C59.3057 11.0594 59.2801 10.9405 59.2219 10.7492Z" fill="white"></path>
  <path d="M59.3304 14.8749C58.7285 15.1737 58.1802 15.4496 57.6276 15.7184C56.9745 16.0366 56.3126 16.3362 55.6657 16.6668C55.3554 16.8254 55.1642 16.8095 54.9297 16.5063C53.992 15.2997 52.7431 14.7101 51.2059 14.7586C49.445 14.8141 47.7792 16.1608 47.2618 17.8469C46.5999 20.0036 47.7113 22.23 49.668 23.1193C51.4642 23.9354 53.8201 23.3458 54.9491 21.7302C55.1386 21.4588 55.2779 21.39 55.5943 21.5513C56.7216 22.1242 57.8638 22.668 59.007 23.2074C59.2476 23.3211 59.3119 23.4093 59.1524 23.6552C57.7149 25.8692 55.7274 27.2908 53.1159 27.7403C49.3912 28.3811 46.384 27.1207 44.1003 24.1434C43.2965 23.0946 42.788 21.8915 42.6029 20.5712C42.5359 20.0944 42.4627 19.6132 42.461 19.1337C42.4548 16.8624 43.2542 14.8864 44.8063 13.247C46.9877 10.9449 49.6953 9.97891 52.8312 10.4504C55.6401 10.8726 57.7819 12.3771 59.3304 14.8749Z" fill="white"></path>
  <path d="M122.313 12.6556C123.003 12.1039 123.575 11.5698 124.221 11.1476C125.098 10.5747 126.109 10.372 127.149 10.3632C127.258 10.3623 127.461 10.5509 127.462 10.654C127.484 11.9214 127.475 13.1897 127.478 14.4571C127.479 14.7603 127.268 14.733 127.064 14.7674C126.337 14.889 125.581 14.9384 124.893 15.1799C123.697 15.6003 123.062 16.5724 122.699 17.7517C122.357 18.864 122.323 20.0071 122.316 21.1529C122.305 23.1219 122.305 25.0909 122.32 27.0599C122.323 27.4406 122.22 27.579 121.822 27.5711C120.648 27.5482 119.473 27.5631 118.298 27.5623C118.178 27.5623 118.059 27.5508 117.899 27.542C117.891 27.3789 117.877 27.2344 117.877 27.0907C117.876 21.7901 117.879 16.4896 117.868 11.189C117.867 10.7942 117.989 10.6831 118.374 10.691C119.508 10.7131 120.642 10.6981 121.777 10.6998C122.299 10.7007 122.312 10.7148 122.313 11.2542C122.314 11.7178 122.313 12.1814 122.313 12.6556Z" fill="white"></path>
  <path d="M128.13 23.0664C128.866 22.9448 129.594 22.8205 130.323 22.7042C130.962 22.6019 131.603 22.5129 132.24 22.4054C132.445 22.371 132.616 22.3569 132.693 22.5993C132.967 23.4498 133.651 23.8217 134.445 23.9724C135.146 24.1055 135.876 24.1311 136.556 23.8341C136.795 23.7301 137.034 23.567 137.201 23.3696C137.654 22.8364 137.517 22.1145 136.867 21.8669C135.99 21.5319 135.079 21.279 134.172 21.0278C132.828 20.6558 131.503 20.246 130.423 19.3153C128.978 18.0725 128.53 16.4552 128.861 14.6449C129.288 12.3013 130.891 11.0656 133.091 10.4936C135.094 9.97273 136.988 10.3024 138.774 11.3142C139.846 11.9214 140.596 12.8134 141.045 13.9565C141.208 14.3708 141.141 14.4616 140.708 14.5382C139.621 14.7313 138.533 14.9269 137.449 15.1429C137.122 15.2081 136.922 15.1711 136.709 14.8635C136.111 13.998 134.442 13.834 133.642 14.5215C133 15.0724 133.066 15.9881 133.833 16.3556C134.434 16.6438 135.091 16.8201 135.73 17.0211C137.051 17.4335 138.415 17.7138 139.649 18.381C141.225 19.2315 141.973 20.5386 141.977 22.3269C141.982 25.2011 140.12 26.94 137.814 27.5385C135.48 28.1449 133.183 28.0056 130.98 27.0061C129.43 26.3037 128.516 25.0477 128.132 23.4031C128.11 23.3044 128.13 23.1942 128.13 23.0664Z" fill="white"></path>
  <path d="M141.559 10.7492C141.751 10.7289 141.893 10.7016 142.035 10.7007C143.291 10.6972 144.546 10.7051 145.802 10.6946C146.11 10.6919 146.272 10.78 146.396 11.0938C147.468 13.8208 148.566 16.5389 149.656 19.2588C149.99 20.0926 150.326 20.9255 150.661 21.7593C150.699 21.7637 150.736 21.7681 150.774 21.7716C150.934 21.4023 151.101 21.0348 151.254 20.662C152.557 17.4908 153.861 14.3205 155.156 11.1458C155.282 10.8365 155.44 10.6831 155.804 10.6893C157.06 10.7122 158.315 10.6963 159.571 10.699C160.023 10.6998 160.054 10.7545 159.889 11.1582C158.362 14.8899 156.839 18.6234 155.309 22.3542C153.728 26.2102 152.832 28.7027 151.249 32.5579C151.075 32.98 150.893 33.3996 150.734 33.8279C150.639 34.0862 150.475 34.1673 150.21 34.1655C148.928 34.1567 147.646 34.162 146.362 34.1611C145.914 34.1611 145.864 34.095 146.038 33.6675C146.442 32.6707 146.854 31.6783 147.266 30.685C147.837 29.3056 147.728 29.2915 148.281 27.906C148.358 27.7147 148.364 27.4397 148.287 27.2502C146.889 23.8138 145.474 20.3844 144.063 16.9532C143.27 15.0265 142.478 13.0989 141.688 11.1705C141.643 11.0594 141.617 10.9405 141.559 10.7492Z" fill="white"></path>
  <path d="M159.509 27.0529C159.524 24.3691 159.505 21.6844 159.521 18.9998C159.531 17.3155 159.755 15.6646 160.534 14.1399C161.607 12.0378 163.337 10.8118 165.647 10.3896C167.12 10.2151 168.762 10.1781 170.137 10.3896C172.447 10.8118 174.177 12.0378 175.25 14.1399C176.029 15.6655 176.253 17.3155 176.263 18.9998C176.278 21.6835 176.26 24.3682 176.275 27.0529C176.277 27.4345 176.149 27.5376 175.784 27.5323C174.637 27.5138 173.488 27.5085 172.341 27.535C171.939 27.5438 171.813 27.4433 171.815 27.0229C171.835 24.3118 171.831 21.6007 171.823 18.8896C171.818 17.5675 171.431 16.3874 170.381 15.5148C168.761 14.1672 165.381 14.2677 164.348 17.1868C164.051 18.0267 163.972 18.8887 163.975 19.7692C163.982 22.1833 163.968 24.5982 163.988 27.0123C163.992 27.4257 163.871 27.5438 163.464 27.535C162.29 27.5103 161.114 27.5165 159.939 27.5323C159.616 27.5367 159.493 27.4583 159.494 27.1093L159.509 27.0529Z" fill="white"></path>
  <path d="M78.9162 4.35043C80.4004 4.35043 81.8388 4.35043 83.3565 4.35043C83.3565 7.44581 83.3565 8.96265 83.3565 12.0607C84.0263 11.6905 84.6063 11.3265 85.2224 11.0383C88.4623 9.52232 92.6136 10.4786 94.869 13.2585C96.9129 15.7783 97.4435 18.6339 96.5841 21.724C95.8006 24.5418 94.0158 26.539 91.2298 27.4803C88.6262 28.3599 86.1258 27.9959 83.8289 26.4411C83.7091 26.3601 83.591 26.2781 83.472 26.1961C83.4253 26.2049 83.3794 26.2137 83.3327 26.2226C83.3327 26.5319 83.3168 26.8422 83.3371 27.1498C83.3583 27.4723 83.2234 27.5702 82.9123 27.5675C81.6978 27.5552 80.4832 27.5534 79.2687 27.5693C78.9541 27.5737 78.8871 27.453 78.8879 27.1656C78.8941 19.1434 78.8932 12.6759 78.8941 4.65363C78.8924 4.56196 78.9065 4.4703 78.9162 4.35043ZM87.9819 14.7524C85.5961 14.7533 83.5813 16.7513 83.5804 19.1161C83.5795 21.4993 85.5996 23.5026 88.0066 23.5044C90.3687 23.5062 92.3791 21.4861 92.3782 19.1125C92.3756 16.7381 90.3731 14.7515 87.9819 14.7524Z" fill="white"></path>
  <path d="M34.545 26.2025C34.3723 26.2025 34.2269 26.2986 34.1414 26.4352L34.1255 26.4273C32.8131 29.0018 30.8873 31.2123 28.5367 32.8604C28.5226 32.871 28.5094 32.8816 28.4953 32.8913C28.4882 32.8957 28.4821 32.901 28.4759 32.9054L28.4741 32.9027C28.3375 32.9865 28.178 33.0376 28.0061 33.0376C27.5099 33.0376 27.108 32.6357 27.108 32.1395C27.108 31.8433 27.2526 31.5833 27.4729 31.4203L27.4711 31.4185C29.5803 29.9492 31.3086 27.9732 32.4932 25.6737C32.5311 25.6041 32.5584 25.5292 32.5584 25.4446C32.5584 25.1775 32.3416 24.9607 32.0746 24.9607C31.9018 24.9607 31.7573 25.0559 31.6718 25.1925L31.6612 25.1872C29.2171 29.9792 24.2365 33.2703 18.4988 33.2703C16.2178 33.2703 14.0584 32.7467 12.1282 31.8195C12.1079 31.8116 12.0894 31.8019 12.07 31.7931C12.0533 31.7851 12.0366 31.7781 12.0198 31.7702L12.0216 31.7666C11.7466 31.6133 11.558 31.3224 11.558 30.9849C11.558 30.4886 11.9599 30.0867 12.4561 30.0867C12.5856 30.0867 12.7082 30.1158 12.8201 30.1652L12.821 30.1634C14.537 31.0025 16.4637 31.4749 18.4988 31.4749C23.5367 31.4749 27.9092 28.5866 30.0571 24.3807L30.0562 24.3799C30.0818 24.3208 30.0976 24.2556 30.0976 24.186C30.0976 23.9189 29.8808 23.7021 29.6138 23.7021C29.4348 23.7021 29.2841 23.8043 29.2004 23.9489L29.1872 23.9427C27.6316 26.9861 24.8226 29.2865 21.4382 30.1414V30.1396C21.38 30.1511 21.3209 30.1572 21.2592 30.1572C20.7604 30.1572 20.3567 29.7527 20.3567 29.2547C20.3567 28.8405 20.6379 28.495 21.0186 28.3883L21.0177 28.383C23.8734 27.6542 26.246 25.7195 27.5699 23.1583C27.606 23.0904 27.6316 23.0164 27.6316 22.9344C27.6316 22.6673 27.4147 22.4505 27.1477 22.4505C26.9652 22.4505 26.811 22.5563 26.729 22.7052L26.7202 22.7008C25.0315 25.9928 21.4337 28.1504 17.3927 27.6779C13.1823 27.1861 9.78905 23.777 9.31664 19.564C8.69087 13.9938 13.0519 9.25815 18.4988 9.25815C22.0816 9.25815 25.1884 11.3118 26.7211 14.3005L26.7255 14.2978C26.8066 14.4503 26.9626 14.5587 27.1477 14.5587C27.4147 14.5587 27.6316 14.3419 27.6316 14.0749C27.6316 13.9999 27.6113 13.9312 27.5813 13.8677L27.584 13.866C25.8917 10.5617 22.4588 8.29041 18.4988 8.29041C14.552 8.29041 11.1287 10.5458 9.43034 13.8307L9.42681 13.8289C9.27081 14.0978 8.98348 14.2811 8.65032 14.2811C8.15235 14.2811 7.74956 13.8774 7.74956 13.3803C7.74956 13.2561 7.77512 13.138 7.82007 13.0295L7.81831 13.0287C7.84034 12.9864 7.8659 12.9458 7.88794 12.9035C7.89411 12.8938 7.89763 12.8841 7.9038 12.8753C9.92479 9.08541 13.9121 6.49505 18.4988 6.49505C23.1401 6.49505 27.1706 9.14534 29.1678 13.0093C29.1687 13.0119 29.1713 13.0146 29.1722 13.0172C29.1792 13.0304 29.1872 13.0428 29.1933 13.056L29.1969 13.0542C29.2797 13.2023 29.4322 13.3063 29.6138 13.3063C29.8808 13.3063 30.0976 13.0895 30.0976 12.8224C30.0976 12.7422 30.073 12.6691 30.0386 12.6021C28.2432 9.10568 24.9152 6.52149 20.9402 5.76087C20.9358 5.75999 20.9322 5.75911 20.9278 5.75823C20.927 5.75823 20.927 5.75823 20.9261 5.75823C20.5215 5.67097 20.2174 5.31137 20.2174 4.88126C20.2174 4.38505 20.6194 3.98314 21.1156 3.98314C21.1588 3.98314 21.1993 3.99019 21.2407 3.99548L21.2416 3.99107C21.2539 3.99372 21.2663 3.99724 21.2786 3.99901C21.2927 4.00165 21.3059 4.00518 21.3192 4.00782C25.8388 4.88567 29.6279 7.82945 31.6612 11.8141L31.6674 11.8106C31.752 11.9499 31.8992 12.0477 32.0737 12.0477C32.3407 12.0477 32.5575 11.8309 32.5575 11.5638C32.5575 11.4986 32.5434 11.4378 32.5205 11.3814L32.524 11.3796C29.9222 6.27207 24.6146 2.76332 18.4997 2.76332C13.5754 2.76332 9.17386 5.03815 6.2856 8.59096L6.28208 8.58831C6.11726 8.77604 5.87841 8.89679 5.60959 8.89679C5.11338 8.89679 4.71147 8.49489 4.71147 7.99867C4.71147 7.80477 4.77405 7.62585 4.87893 7.47955L4.87805 7.47866C4.88775 7.46632 4.8992 7.45487 4.9089 7.44253C4.9327 7.41256 4.95561 7.38348 4.98205 7.35704C8.19994 3.46049 13.0625 0.967969 18.4988 0.967969C25.3135 0.967969 31.2284 4.8795 34.1281 10.5723L34.137 10.5679C34.2216 10.7071 34.3688 10.8058 34.5442 10.8058C34.8112 10.8058 35.028 10.589 35.028 10.322C35.028 10.2567 35.0139 10.1951 34.991 10.1386L34.9919 10.1378C34.991 10.1369 34.991 10.1351 34.9901 10.1342C34.9892 10.1334 34.9892 10.1325 34.9884 10.1307C31.8242 3.91968 25.2571 -0.280936 17.7567 0.0152054C8.41411 0.382738 0.704754 7.83915 0.0463691 17.1658C-0.715136 27.967 7.85709 37.0002 18.4997 37.0002C25.6723 37.0002 31.8992 32.893 34.9672 26.9103C35.0033 26.8424 35.0298 26.7684 35.0298 26.6864C35.0289 26.4185 34.813 26.2025 34.545 26.2025Z" fill="white"></path>
</svg>
